# xmcd CD database file
#
# Track frame offsets:
#	150
#	16190
#	35685
#
# Disc length: 724 seconds
#
# Revision: 1
# Processed by: cddbd v1.5PL3 Copyright (c) Steve Scherf et al.
# Submitted via: CDex 1.50
#
DISCID=1a02d203
DTITLE=PIERROT - 薔薇色の世界
DYEAR=2003
DGENRE=Rock
TTITLE0=薔薇色の世界
TTITLE1=ネオグロテスク
TTITLE2=夕闇スーサイド
EXTD=YEAR: 2003
EXTT0=
EXTT1=
EXTT2=
PLAYORDER=
